<?xml version="1.0" encoding="UTF-8"?>
<svg xmlns="http://www.w3.org/2000/svg" viewBox="0 0 512 512" width="512" height="512"><g id="outline"><path d="M240,312h8a8,8,0,0,0,0-16h-8a8,8,0,0,0,0,16Z"/><path d="M360,312h8a8,8,0,0,0,0-16h-8a8,8,0,0,0,0,16Z"/><path d="M488,432H472V328a8,8,0,0,0,0-16H440V268a20.023,20.023,0,0,0-20-20H188a20.023,20.023,0,0,0-20,20v44H136a8,8,0,0,0,0,16V432H118.035L90.606,336H96a8,8,0,0,0,8-8V296a8,8,0,0,0-8-8H80V256h40a8,8,0,0,0,7.891-9.315l-16-96A8,8,0,0,0,104,144H40a8,8,0,0,0-7.891,6.685l-16,96A8,8,0,0,0,24,256v16a8,8,0,0,0,16,0V256H64v32H48a8,8,0,0,0-8,8v32a8,8,0,0,0,8,8h5.394L25.965,432H24a8,8,0,0,0,0,16H488a8,8,0,0,0,0-16ZM73.223,160l13.333,80H57.444l13.333-80Zm37.333,80h-7.779L89.444,160h7.779ZM46.777,160h7.779L41.223,240H33.444ZM152,366a6.006,6.006,0,0,1,6-6H450a6.006,6.006,0,0,1,6,6v26H152Zm304-38v16.838a21.931,21.931,0,0,0-6-.838H440V328Zm-32-60v76H312V264H420A4,4,0,0,1,424,268Zm-240,0a4,4,0,0,1,4-4H296v80H184Zm-16,60v16H158a21.931,21.931,0,0,0-6,.838V328Zm-16,80H456v24H152Zm-50.606,24H80V357.122ZM56,304H88v16H56Zm8,53.122V432H42.606Z"/><path d="M200,72V184a8,8,0,0,0,8,8H384a8,8,0,0,0,8-8V72a8,8,0,0,0-8-8H208A8,8,0,0,0,200,72Zm69.478,104h-52.1l53.267-37.287,19.537,22.793Zm27.9,0,9.167-6.417.026-.018,44.074-30.852L376,168.292V176ZM376,80v63.707l-17.926-20.913a8,8,0,0,0-10.662-1.348l-44.058,30.841-25.28-29.493a8,8,0,0,0-10.662-1.348L216,157.435V80Z"/><path d="M312,136a24,24,0,1,0-24-24A24.027,24.027,0,0,0,312,136Zm0-32a8,8,0,1,1-8,8A8.009,8.009,0,0,1,312,104Z"/></g></svg>
