<svg id="Capa_1" enable-background="new 0 0 511.881 511.881" height="512" viewBox="0 0 511.881 511.881" width="512" xmlns="http://www.w3.org/2000/svg"><g><path d="m285.941 233.306c0-16.542-13.458-30-30-30s-30 13.458-30 30 13.458 30 30 30 30-13.458 30-30zm-30 10c-5.514 0-10-4.486-10-10s4.486-10 10-10 10 4.486 10 10-4.486 10-10 10z"/><path d="m165.941 253.306c0-4.305.306-8.63.91-12.857.781-5.467-3.018-10.532-8.485-11.313-5.465-.782-10.533 3.018-11.314 8.485-.737 5.16-1.111 10.438-1.111 15.686v6.036c0 5.522 4.477 10 10 10s10-4.478 10-10z"/><path d="m179.206 206.248c3.19-5.19 6.929-10.082 11.113-14.538 3.78-4.026 3.581-10.355-.446-14.136-4.026-3.778-10.355-3.579-14.135.446-5.107 5.44-9.673 11.414-13.571 17.755-2.892 4.705-1.422 10.863 3.283 13.756 4.713 2.898 10.871 1.412 13.756-3.283z"/><path d="m365.941 299.469c0-5.522-4.477-10-10-10s-10 4.478-10 10v20.36c0 5.522 4.477 10 10 10s10-4.478 10-10z"/><path d="m349.37 195.218c-3.938-6.32-8.538-12.266-13.673-17.67-3.804-4.004-10.134-4.165-14.137-.362-4.004 3.805-4.166 10.134-.362 14.138 4.206 4.427 7.973 9.296 11.198 14.471 2.926 4.696 9.099 6.114 13.775 3.199 4.687-2.922 6.119-9.089 3.199-13.776z"/><path d="m365.941 253.305c0-5.469-.406-10.963-1.206-16.332-.813-5.462-5.898-9.228-11.364-8.417-5.462.813-9.231 5.901-8.418 11.364.655 4.396.987 8.9.988 13.386v5.442c0 5.522 4.477 10 10 10s10-4.478 10-10z"/><path d="m355.941 411.632c-5.523 0-10 4.478-10 10v20.36c0 5.522 4.477 10 10 10s10-4.478 10-10v-20.36c0-5.523-4.477-10-10-10z"/><path d="m365.941 360.55c0-5.522-4.477-10-10-10s-10 4.478-10 10v20.36c0 5.522 4.477 10 10 10s10-4.478 10-10z"/><path d="m155.941 412.225c-5.523 0-10 4.478-10 10v20.36c0 5.522 4.477 10 10 10s10-4.478 10-10v-20.36c0-5.522-4.478-10-10-10z"/><path d="m277.844 145.488c-5.416-1.09-10.688 2.407-11.784 7.82-1.094 5.413 2.407 10.688 7.82 11.783 5.977 1.208 11.847 3.037 17.448 5.435 5.086 2.178 10.959-.188 13.129-5.256 2.174-5.077-.18-10.955-5.257-13.129-6.856-2.935-14.041-5.173-21.356-6.653z"/><path d="m165.941 361.143c0-5.522-4.477-10-10-10s-10 4.478-10 10v20.361c0 5.522 4.477 10 10 10s10-4.478 10-10z"/><path d="m165.941 300.062c0-5.522-4.477-10-10-10s-10 4.478-10 10v20.36c0 5.522 4.477 10 10 10s10-4.478 10-10z"/><path d="m233.392 145.619c-7.303 1.522-14.474 3.804-21.313 6.781-5.064 2.204-7.382 8.096-5.178 13.16 2.196 5.047 8.078 7.389 13.16 5.178 5.588-2.432 11.447-4.296 17.413-5.539 5.407-1.128 8.876-6.424 7.749-11.831-1.128-5.405-6.426-8.871-11.831-7.749z"/><path d="m507.92 206.925-61.979-46.959v-96.66h10c5.523 0 10-4.478 10-10s-4.477-10-10-10h-100c-5.523 0-10 4.478-10 10s4.477 10 10 10h10v36.055l-103.962-78.757c-3.571-2.705-8.506-2.705-12.077 0l-245.94 186.321c-4.342 3.289-5.252 9.448-2.048 13.853l23.53 32.351c3.285 4.518 9.668 5.483 14.143 2.076l26.354-20.051v248.152c0 5.522 4.477 10 10 10h360c5.523 0 10-4.478 10-10v-90c0-5.522-4.477-10-10-10s-10 4.478-10 10v80h-140v-90h10c5.523 0 10-4.478 10-10v-60c0-27.57-22.43-50-50-50s-50 22.43-50 50v60c0 5.522 4.477 10 10 10h10v90h-140v-253.369l170-129.337 170 129.332v83.373c0 5.522 4.477 10 10 10s10-4.478 10-10v-68.155l26.354 20.053c4.472 3.404 10.855 2.445 14.143-2.076l23.53-32.351c3.204-4.403 2.293-10.562-2.048-13.851zm-281.979 106.381c0-16.542 13.458-30 30-30s30 13.458 30 30v50h-10c-5.523 0-10 4.478-10 10v100h-20v-100c0-5.522-4.477-10-10-10h-10zm160-250h40v81.509l-40-30.302zm90.333 169.794-214.279-163.023c-1.789-1.36-3.922-2.041-6.055-2.041s-4.266.681-6.055 2.041l-214.278 163.023-11.751-16.156 232.085-175.823c8.824 6.685 219.445 166.248 232.084 175.823z"/><circle cx="435.88" cy="348.306" r="10"/></g></svg>