<?xml version="1.0"?>
<svg xmlns="http://www.w3.org/2000/svg" viewBox="0 0 512 512" width="512" height="512"><g id="outline"><path d="M488,56H24a8,8,0,0,0-8,8V424a8,8,0,0,0,8,8H297.475a23.856,23.856,0,0,0,45.051,0H488a8,8,0,0,0,8-8V64A8,8,0,0,0,488,56ZM344,344v-5.708L375.435,288H440v56Zm32,48.2a39.77,39.77,0,0,0-24-8.2,8.011,8.011,0,0,1-8-8V360h32ZM216,288a8,8,0,0,0,0-16H176a16,16,0,0,1,0-32h40a8,8,0,0,0,0-16,16,16,0,0,1,0-32h89.425l-25.432,39.964A8,8,0,0,0,272,224H248a8,8,0,0,0,0,16h24a7.853,7.853,0,0,0,3.4-.825L257.25,267.7A8,8,0,0,0,256,272h-8a8,8,0,0,0,0,16h16.565l10,16H216a16.016,16.016,0,0,1-16-16ZM32,200V144H56v56Zm40-56H184v56H72Zm240,0v32H216a31.624,31.624,0,0,0-16,4.452V144Zm128,0v56H339.666L328,181.667V144Zm40,0v56H456V144Zm0,128H392V216h88ZM300.083,314.629l-26.614-42.606L312,211.471v94A24.047,24.047,0,0,0,300.083,314.629ZM376,257.1,349.847,216H376Zm-36.077,57.541A24.044,24.044,0,0,0,328,305.474v-94l38.555,60.585ZM312,328a8,8,0,0,1,16,0v40H312Zm144-40h24v56H456Zm24-160H392V72h88Zm-104,0H264V72H376Zm-128,0H136V72H248ZM32,72h88v56H32Zm0,144H185.038a31.8,31.8,0,0,0,3.255,8H176a32,32,0,0,0,0,64h8a32.036,32.036,0,0,0,32,32h68.566L296,338.293V416H32ZM320,432a8.011,8.011,0,0,1-8-8V384h16v40A8.011,8.011,0,0,1,320,432Zm24-16V398.525A23.707,23.707,0,0,0,352,400a24.088,24.088,0,0,1,16.945,6.977,24.519,24.519,0,0,1,5.68,9.023Zm136,0H392V360h88Z"/></g></svg>
